<mxfile host="Electron" modified="2023-10-28T20:45:16.827Z" agent="Mozilla/5.0 (Windows NT 10.0; Win64; x64) AppleWebKit/537.36 (KHTML, like Gecko) draw.io/22.0.3 Chrome/114.0.5735.289 Electron/25.8.4 Safari/537.36" etag="Jwf9J4vHOI8dyEmQOw47" version="22.0.3" type="device">
  <diagram name="Página-1" id="l1nC5rkU7X4x_vQWDjCM">
    <mxGraphModel dx="880" dy="532" grid="1" gridSize="10" guides="1" tooltips="1" connect="1" arrows="1" fold="1" page="1" pageScale="1" pageWidth="900" pageHeight="1600" math="0" shadow="0">
      <root>
        <mxCell id="0" />
        <mxCell id="1" parent="0" />
        <mxCell id="zKSgqSOk7lmeHeixWYbE-1" value="Pool" style="swimlane;childLayout=stackLayout;resizeParent=1;resizeParentMax=0;startSize=20;html=1;" parent="1" vertex="1">
          <mxGeometry x="270" y="40" width="1080" height="480" as="geometry" />
        </mxCell>
        <mxCell id="zKSgqSOk7lmeHeixWYbE-2" value="Clientes" style="swimlane;startSize=20;html=1;" parent="zKSgqSOk7lmeHeixWYbE-1" vertex="1">
          <mxGeometry y="20" width="150" height="460" as="geometry" />
        </mxCell>
        <mxCell id="zKSgqSOk7lmeHeixWYbE-9" value="" style="ellipse;whiteSpace=wrap;html=1;aspect=fixed;" parent="zKSgqSOk7lmeHeixWYbE-2" vertex="1">
          <mxGeometry x="50" y="50" width="40" height="40" as="geometry" />
        </mxCell>
        <mxCell id="zKSgqSOk7lmeHeixWYbE-3" value="Ventas" style="swimlane;startSize=20;html=1;" parent="zKSgqSOk7lmeHeixWYbE-1" vertex="1">
          <mxGeometry x="150" y="20" width="160" height="460" as="geometry" />
        </mxCell>
        <mxCell id="zKSgqSOk7lmeHeixWYbE-15" style="edgeStyle=orthogonalEdgeStyle;rounded=0;orthogonalLoop=1;jettySize=auto;html=1;" parent="zKSgqSOk7lmeHeixWYbE-3" source="zKSgqSOk7lmeHeixWYbE-11" edge="1">
          <mxGeometry relative="1" as="geometry">
            <mxPoint x="50" y="150" as="targetPoint" />
          </mxGeometry>
        </mxCell>
        <mxCell id="zKSgqSOk7lmeHeixWYbE-11" value="" style="ellipse;whiteSpace=wrap;html=1;aspect=fixed;" parent="zKSgqSOk7lmeHeixWYbE-3" vertex="1">
          <mxGeometry x="30" y="50" width="40" height="40" as="geometry" />
        </mxCell>
        <mxCell id="zKSgqSOk7lmeHeixWYbE-12" value="NV2" style="shape=document;whiteSpace=wrap;html=1;boundedLbl=1;" parent="zKSgqSOk7lmeHeixWYbE-3" vertex="1">
          <mxGeometry x="100" y="50" width="40" height="30" as="geometry" />
        </mxCell>
        <mxCell id="zKSgqSOk7lmeHeixWYbE-14" value="NV1" style="shape=document;whiteSpace=wrap;html=1;boundedLbl=1;" parent="zKSgqSOk7lmeHeixWYbE-3" vertex="1">
          <mxGeometry x="80" y="60" width="40" height="30" as="geometry" />
        </mxCell>
        <mxCell id="zKSgqSOk7lmeHeixWYbE-19" style="edgeStyle=orthogonalEdgeStyle;rounded=0;orthogonalLoop=1;jettySize=auto;html=1;" parent="zKSgqSOk7lmeHeixWYbE-3" source="zKSgqSOk7lmeHeixWYbE-16" edge="1">
          <mxGeometry relative="1" as="geometry">
            <mxPoint x="190" y="170" as="targetPoint" />
          </mxGeometry>
        </mxCell>
        <mxCell id="zKSgqSOk7lmeHeixWYbE-16" value="" style="ellipse;whiteSpace=wrap;html=1;aspect=fixed;" parent="zKSgqSOk7lmeHeixWYbE-3" vertex="1">
          <mxGeometry x="30" y="150" width="40" height="40" as="geometry" />
        </mxCell>
        <mxCell id="zKSgqSOk7lmeHeixWYbE-17" value="" style="endArrow=none;html=1;rounded=0;exitX=0.5;exitY=0;exitDx=0;exitDy=0;entryX=0;entryY=1;entryDx=0;entryDy=0;" parent="zKSgqSOk7lmeHeixWYbE-3" source="zKSgqSOk7lmeHeixWYbE-16" target="zKSgqSOk7lmeHeixWYbE-16" edge="1">
          <mxGeometry width="50" height="50" relative="1" as="geometry">
            <mxPoint x="150" y="170" as="sourcePoint" />
            <mxPoint x="200" y="120" as="targetPoint" />
          </mxGeometry>
        </mxCell>
        <mxCell id="zKSgqSOk7lmeHeixWYbE-18" value="" style="endArrow=none;html=1;rounded=0;entryX=0.5;entryY=0;entryDx=0;entryDy=0;exitX=1;exitY=1;exitDx=0;exitDy=0;" parent="zKSgqSOk7lmeHeixWYbE-3" source="zKSgqSOk7lmeHeixWYbE-16" target="zKSgqSOk7lmeHeixWYbE-16" edge="1">
          <mxGeometry width="50" height="50" relative="1" as="geometry">
            <mxPoint x="150" y="170" as="sourcePoint" />
            <mxPoint x="200" y="120" as="targetPoint" />
          </mxGeometry>
        </mxCell>
        <mxCell id="zKSgqSOk7lmeHeixWYbE-4" value="Depósito Gral." style="swimlane;startSize=20;html=1;" parent="zKSgqSOk7lmeHeixWYbE-1" vertex="1">
          <mxGeometry x="310" y="20" width="150" height="460" as="geometry" />
        </mxCell>
        <mxCell id="zKSgqSOk7lmeHeixWYbE-20" value="NV1" style="shape=document;whiteSpace=wrap;html=1;boundedLbl=1;" parent="zKSgqSOk7lmeHeixWYbE-4" vertex="1">
          <mxGeometry x="40" y="155" width="40" height="30" as="geometry" />
        </mxCell>
        <mxCell id="zKSgqSOk7lmeHeixWYbE-5" value="Ctas. Ctes." style="swimlane;startSize=20;html=1;" parent="zKSgqSOk7lmeHeixWYbE-1" vertex="1">
          <mxGeometry x="460" y="20" width="170" height="460" as="geometry" />
        </mxCell>
        <mxCell id="4I_hrVYnlhD7BIt9DCMI-3" value="NV2" style="shape=document;whiteSpace=wrap;html=1;boundedLbl=1;" vertex="1" parent="zKSgqSOk7lmeHeixWYbE-5">
          <mxGeometry x="50" y="185" width="40" height="30" as="geometry" />
        </mxCell>
        <mxCell id="zKSgqSOk7lmeHeixWYbE-6" value="Gerencia" style="swimlane;startSize=20;html=1;" parent="zKSgqSOk7lmeHeixWYbE-1" vertex="1">
          <mxGeometry x="630" y="20" width="160" height="460" as="geometry" />
        </mxCell>
        <mxCell id="zKSgqSOk7lmeHeixWYbE-7" value="Expedición" style="swimlane;startSize=20;html=1;" parent="zKSgqSOk7lmeHeixWYbE-1" vertex="1">
          <mxGeometry x="790" y="20" width="150" height="460" as="geometry" />
        </mxCell>
        <mxCell id="zKSgqSOk7lmeHeixWYbE-8" value="Secretaria Gral." style="swimlane;startSize=20;html=1;" parent="zKSgqSOk7lmeHeixWYbE-1" vertex="1">
          <mxGeometry x="940" y="20" width="140" height="460" as="geometry" />
        </mxCell>
        <mxCell id="zKSgqSOk7lmeHeixWYbE-10" style="edgeStyle=orthogonalEdgeStyle;rounded=0;orthogonalLoop=1;jettySize=auto;html=1;" parent="zKSgqSOk7lmeHeixWYbE-1" source="zKSgqSOk7lmeHeixWYbE-9" target="zKSgqSOk7lmeHeixWYbE-11" edge="1">
          <mxGeometry relative="1" as="geometry">
            <mxPoint x="190" y="95" as="targetPoint" />
          </mxGeometry>
        </mxCell>
        <mxCell id="4I_hrVYnlhD7BIt9DCMI-2" value="" style="edgeStyle=elbowEdgeStyle;elbow=horizontal;endArrow=classic;html=1;curved=0;rounded=0;endSize=8;startSize=8;exitX=0.5;exitY=1;exitDx=0;exitDy=0;" edge="1" parent="1" source="zKSgqSOk7lmeHeixWYbE-16">
          <mxGeometry width="50" height="50" relative="1" as="geometry">
            <mxPoint x="630" y="300" as="sourcePoint" />
            <mxPoint x="770" y="260" as="targetPoint" />
            <Array as="points">
              <mxPoint x="470" y="260" />
            </Array>
          </mxGeometry>
        </mxCell>
      </root>
    </mxGraphModel>
  </diagram>
</mxfile>
